<svg width="172" height="168" viewBox="0 0 172 168" fill="none" xmlns="http://www.w3.org/2000/svg">
<path d="M85.7542 159.158C85.5562 159.158 85.3912 159.003 85.3802 158.804C85.3692 158.598 85.5272 158.421 85.7342 158.409C86.0222 158.393 114.861 156.57 136.661 135.514C158.439 114.479 157.228 83.941 157.214 83.635C157.204 83.428 157.363 83.252 157.57 83.242C157.783 83.234 157.953 83.391 157.963 83.598C157.978 83.907 159.21 114.776 137.183 136.052C115.176 157.308 86.0672 159.141 85.7762 159.157C85.7682 159.158 85.7612 159.158 85.7542 159.158Z" fill="#783C3E"/>
<path d="M157.72 84.0901L157.444 83.9521C157.378 83.9191 150.818 80.5331 151.146 72.1321C151.308 67.9601 151.646 65.1601 151.917 62.9101C152.172 60.7921 152.357 59.2631 152.219 57.7761L152.134 56.8611L152.835 57.4551C158.198 62.0041 164.667 75.0761 157.909 83.8451L157.72 84.0901ZM153.015 58.6301C153.035 59.9071 152.872 61.2591 152.662 63.0001C152.392 65.2361 152.056 68.0191 151.895 72.1611C151.624 79.1041 156.322 82.4051 157.511 83.1271C163.392 75.0941 157.978 63.4251 153.015 58.6301Z" fill="#783C3E"/>
<path d="M157.957 86.5372L157.207 86.5332C157.208 86.3422 157.246 67.3472 152.261 57.9162L152.924 57.5652C157.997 67.1642 157.961 85.7512 157.957 86.5372Z" fill="#783C3E"/>
<path d="M152.406 104.254L152.114 104.151C152.044 104.127 145.112 101.589 144.384 93.213C144.023 89.054 144.008 86.234 143.995 83.969C143.984 81.835 143.975 80.294 143.652 78.836L143.453 77.939L144.223 78.441C150.113 82.283 158.168 94.442 152.561 103.988L152.406 104.254ZM144.55 79.585C144.73 80.85 144.738 82.212 144.747 83.966C144.759 86.218 144.774 89.021 145.133 93.15C145.734 100.072 150.808 102.759 152.078 103.326C156.907 94.619 150.074 83.72 144.55 79.585Z" fill="#783C3E"/>
<path d="M152.902 110.854C152.703 110.854 152.537 110.698 152.528 110.497C152.518 110.288 151.447 89.4038 143.718 78.9778C143.594 78.8118 143.63 78.5769 143.796 78.4539C143.962 78.3299 144.197 78.3648 144.32 78.5318C152.185 89.1408 153.267 110.25 153.277 110.462C153.287 110.669 153.127 110.844 152.92 110.854C152.915 110.854 152.909 110.854 152.902 110.854Z" fill="#783C3E"/>
<path d="M158.644 100.87L158.511 100.591C158.479 100.524 155.389 93.8201 160.814 87.3971C163.507 84.2081 165.496 82.2091 167.093 80.6021C168.597 79.0891 169.685 77.9961 170.49 76.7381L170.986 75.9641L171.173 76.8641C172.604 83.7491 169.666 98.0351 158.944 100.794L158.644 100.87ZM170.591 77.9011C169.821 78.9211 168.861 79.8871 167.624 81.1301C166.036 82.7271 164.06 84.7141 161.387 87.8801C156.893 93.2001 158.574 98.6831 159.07 99.9811C168.65 97.2661 171.557 84.7341 170.591 77.9011Z" fill="#783C3E"/>
<path d="M154.582 105.988C154.492 105.988 154.401 105.955 154.329 105.89C154.176 105.75 154.165 105.513 154.305 105.36C154.447 105.205 168.495 89.7162 170.435 76.8842C170.466 76.6802 170.654 76.5382 170.862 76.5702C171.067 76.6012 171.208 76.7922 171.176 76.9972C169.202 90.0562 155.002 105.71 154.859 105.867C154.784 105.947 154.683 105.988 154.582 105.988Z" fill="#783C3E"/>
<path d="M143.413 123.669L143.159 123.494C143.098 123.452 137.066 119.196 138.546 110.92C139.281 106.811 140.001 104.085 140.579 101.894C141.124 99.8312 141.517 98.3402 141.585 96.8482L141.627 95.9302L142.24 96.6162C146.926 101.859 151.536 115.698 143.636 123.453L143.413 123.669ZM142.254 97.8052C142.098 99.0732 141.751 100.39 141.303 102.086C140.728 104.263 140.013 106.973 139.283 111.052C138.057 117.908 142.258 121.812 143.337 122.687C150.27 115.54 146.511 103.236 142.254 97.8052Z" fill="#783C3E"/>
<path d="M142.272 130.184C142.245 130.184 142.218 130.181 142.191 130.175C141.989 130.131 141.861 129.93 141.905 129.728C141.95 129.523 146.355 109.082 141.609 97.0031C141.533 96.8101 141.628 96.5921 141.821 96.5171C142.012 96.4431 142.232 96.5361 142.307 96.7291C147.137 109.021 142.683 129.682 142.638 129.89C142.599 130.064 142.444 130.184 142.272 130.184Z" fill="#783C3E"/>
<path d="M151.477 121.891C151.36 121.891 151.243 121.89 151.124 121.887L150.815 121.879L150.764 121.574C150.751 121.501 149.612 114.207 156.587 109.512C160.05 107.181 162.509 105.802 164.485 104.694C166.346 103.65 167.691 102.895 168.81 101.906L169.499 101.297L169.433 102.214C168.931 109.153 162.335 121.891 151.477 121.891ZM151.468 121.141C151.471 121.141 151.475 121.141 151.478 121.141C161.431 121.141 167.649 109.888 168.588 103.053C167.568 103.823 166.38 104.49 164.851 105.348C162.887 106.45 160.443 107.821 157.005 110.135C151.241 114.015 151.349 119.755 151.468 121.141Z" fill="#783C3E"/>
<path d="M145.611 125.705C145.485 125.705 145.362 125.642 145.292 125.527C145.183 125.351 145.238 125.12 145.414 125.011C145.592 124.901 163.341 113.844 168.716 102.032C168.802 101.843 169.026 101.761 169.213 101.846C169.401 101.932 169.485 102.154 169.399 102.343C163.929 114.364 145.988 125.538 145.808 125.65C145.746 125.687 145.678 125.705 145.611 125.705Z" fill="#783C3E"/>
<path d="M128.143 139.623L127.961 139.373C127.918 139.314 123.641 133.296 127.786 125.981C129.844 122.349 131.428 120.017 132.701 118.143C133.9 116.378 134.766 115.102 135.325 113.718L135.669 112.866L136.019 113.716C138.698 120.218 138.451 134.802 128.422 139.493L128.143 139.623ZM135.64 114.842C135.072 115.987 134.306 117.113 133.321 118.564C132.055 120.427 130.481 122.746 128.438 126.351C125.013 132.396 127.673 137.484 128.398 138.671C137.31 134.231 137.852 121.378 135.64 114.842Z" fill="#783C3E"/>
<path d="M125.027 145.41C124.96 145.41 124.891 145.392 124.83 145.354C124.654 145.245 124.6 145.014 124.709 144.837C124.82 144.659 135.763 126.84 135.298 113.871C135.291 113.664 135.453 113.49 135.659 113.482C135.898 113.485 136.04 113.637 136.048 113.843C136.521 127.041 125.459 145.051 125.347 145.232C125.275 145.347 125.152 145.41 125.027 145.41Z" fill="#783C3E"/>
<path d="M143.131 139.693C141.521 139.693 139.889 139.418 138.263 138.798L137.974 138.688L138.027 138.383C138.04 138.31 139.387 131.052 147.526 128.941C151.566 127.893 154.344 127.408 156.576 127.019C158.679 126.652 160.197 126.387 161.581 125.825L162.433 125.479L162.066 126.322C159.699 131.757 151.761 139.693 143.131 139.693ZM138.835 138.21C148.225 141.523 157.834 132.971 160.992 126.834C159.774 127.222 158.432 127.456 156.704 127.758C154.485 128.145 151.724 128.627 147.714 129.667C140.972 131.416 139.179 136.863 138.835 138.21Z" fill="#783C3E"/>
<path d="M131.919 140.59C131.747 140.59 131.591 140.47 131.553 140.295C131.509 140.093 131.637 139.893 131.839 139.849C132.045 139.804 152.457 135.27 161.45 125.913C161.593 125.763 161.831 125.759 161.98 125.902C162.129 126.046 162.134 126.283 161.991 126.432C152.839 135.954 132.206 140.536 131.998 140.581C131.972 140.587 131.945 140.59 131.919 140.59Z" fill="#783C3E"/>
<path d="M111.299 149.408L111.179 149.123C111.151 149.055 108.384 142.211 114.111 136.055C116.954 132.998 119.036 131.095 120.708 129.567C122.283 128.128 123.42 127.088 124.285 125.871L124.817 125.122L124.961 126.03C126.061 132.975 122.443 147.105 111.601 149.347L111.299 149.408ZM124.331 127.037C123.513 128.019 122.508 128.937 121.214 130.12C119.552 131.64 117.483 133.531 114.66 136.565C109.917 141.665 111.334 147.221 111.767 148.541C121.466 146.287 124.969 133.909 124.331 127.037Z" fill="#783C3E"/>
<path d="M107.015 154.327C106.919 154.327 106.822 154.29 106.749 154.216C106.603 154.069 106.604 153.832 106.751 153.686C106.9 153.538 121.673 138.739 124.224 126.014C124.265 125.811 124.459 125.679 124.665 125.72C124.868 125.761 124.999 125.958 124.959 126.161C122.363 139.11 107.43 154.068 107.279 154.218C107.206 154.29 107.111 154.327 107.015 154.327Z" fill="#783C3E"/>
<path d="M130.442 154.46C127.218 154.46 124.034 153.593 121.299 151.414L121.057 151.221L121.2 150.947C121.235 150.881 124.721 144.378 133.121 144.842C137.289 145.072 140.083 145.456 142.328 145.764C144.442 146.055 145.971 146.265 147.457 146.15L148.374 146.08L147.768 146.771C144.597 150.389 137.427 154.46 130.442 154.46ZM122.024 151.027C129.962 157.041 141.717 151.816 146.591 146.931C145.313 146.931 143.964 146.745 142.227 146.507C139.996 146.201 137.219 145.819 133.081 145.591C126.156 145.214 122.765 149.85 122.024 151.027Z" fill="#783C3E"/>
<path d="M122.406 151.496C117.963 151.496 114.871 151.215 114.79 151.207C114.584 151.187 114.433 151.004 114.452 150.798C114.472 150.592 114.648 150.445 114.861 150.46C115.07 150.48 135.894 152.37 147.308 146.193C147.492 146.094 147.717 146.163 147.816 146.344C147.915 146.526 147.847 146.754 147.665 146.852C140.468 150.749 129.645 151.496 122.406 151.496Z" fill="#783C3E"/>
<path d="M85.7552 159.158C85.7482 159.158 85.7412 159.158 85.7342 159.157C85.4422 159.141 56.3352 157.308 34.3272 136.052C12.2992 114.776 13.5322 83.9072 13.5472 83.5982C13.5572 83.3912 13.7412 83.2352 13.9402 83.2422C14.1472 83.2522 14.3072 83.4282 14.2962 83.6352C14.2812 83.9412 13.0702 114.479 34.8492 135.514C56.6492 156.57 85.4872 158.393 85.7752 158.409C85.9822 158.421 86.1402 158.598 86.1292 158.804C86.1182 159.003 85.9522 159.158 85.7552 159.158Z" fill="#783C3E"/>
<path d="M13.7891 84.0901L13.6011 83.8451C6.8431 75.0761 13.3121 62.0041 18.6751 57.4551L19.3761 56.8601L19.2911 57.7761C19.1521 59.2631 19.3371 60.7941 19.5931 62.9121C19.8641 65.1621 20.2021 67.9611 20.3641 72.1321C20.6921 80.5331 14.1321 83.9191 14.0651 83.9521L13.7891 84.0901ZM18.4951 58.6311C13.5311 63.4241 8.11711 75.0931 13.9991 83.1271C15.1881 82.4051 19.8861 79.1051 19.6151 72.1611C19.4531 68.0201 19.1181 65.2381 18.8481 63.0021C18.6381 61.2611 18.4751 59.9091 18.4951 58.6311Z" fill="#783C3E"/>
<path d="M13.5531 86.5372C13.5491 85.7502 13.5121 67.1632 18.5861 57.5662L19.2491 57.9172C14.2631 67.3502 14.3021 86.3432 14.3031 86.5342L13.5531 86.5372Z" fill="#783C3E"/>
<path d="M19.1042 104.254L18.9482 103.987C13.3402 94.441 21.3952 82.281 27.2862 78.44L28.0562 77.938L27.8572 78.835C27.5342 80.293 27.5252 81.834 27.5142 83.968C27.5012 86.234 27.4862 89.053 27.1252 93.213C26.3982 101.589 19.4662 104.127 19.3962 104.151L19.1042 104.254ZM26.9602 79.585C21.4352 83.72 14.6022 94.619 19.4322 103.326C20.7032 102.759 25.7762 100.072 26.3772 93.15C26.7352 89.021 26.7512 86.218 26.7632 83.966C26.7732 82.211 26.7802 80.85 26.9602 79.585Z" fill="#783C3E"/>
<path d="M18.6071 110.854C18.6011 110.854 18.5951 110.854 18.5891 110.853C18.3821 110.843 18.2221 110.667 18.2321 110.461C18.2421 110.249 19.3241 89.1409 27.1891 78.5309C27.3131 78.3639 27.5471 78.3289 27.7131 78.4529C27.8801 78.5769 27.9151 78.8109 27.7911 78.9769C20.0621 89.4029 18.9901 110.286 18.9801 110.496C18.9721 110.698 18.8061 110.854 18.6071 110.854Z" fill="#783C3E"/>
<path d="M12.8661 100.87L12.5671 100.793C1.84514 98.0351 -1.09386 83.7481 0.338138 76.8631L0.525142 75.9631L1.02114 76.7371C1.82614 77.9951 2.91414 79.0881 4.41814 80.6011C6.01514 82.2081 8.00314 84.2071 10.6971 87.3961C16.1221 93.8191 13.0311 100.523 13.0001 100.59L12.8661 100.87ZM0.91814 77.9011C-0.0468603 84.7331 2.86014 97.2641 12.4391 99.9811C12.9331 98.6801 14.6071 93.1891 10.1231 87.8801C7.45014 84.7141 5.47414 82.7271 3.88614 81.1301C2.64914 79.8871 1.68814 78.9211 0.91814 77.9011Z" fill="#783C3E"/>
<path d="M16.9271 105.988C16.8251 105.988 16.7241 105.947 16.6501 105.866C16.5071 105.71 2.30713 90.0552 0.333131 76.9962C0.302131 76.7912 0.443127 76.6002 0.647127 76.5692C0.853127 76.5372 1.04313 76.6792 1.07413 76.8832C3.01313 89.7162 17.0621 105.204 17.2031 105.359C17.3431 105.512 17.3321 105.749 17.1791 105.889C17.1091 105.955 17.0181 105.988 16.9271 105.988Z" fill="#783C3E"/>
<path d="M28.0962 123.669L27.8752 123.453C19.9752 115.697 24.5842 101.859 29.2712 96.6162L29.8842 95.9302L29.9252 96.8482C29.9932 98.3402 30.3862 99.8312 30.9312 101.894C31.5092 104.084 32.2282 106.811 32.9632 110.919C34.4432 119.195 28.4112 123.451 28.3502 123.493L28.0962 123.669ZM29.2562 97.8052C24.9992 103.237 21.2412 115.539 28.1722 122.687C29.2512 121.808 33.4492 117.893 32.2262 111.052C31.4972 106.973 30.7812 104.264 30.2072 102.086C29.7592 100.391 29.4112 99.0742 29.2562 97.8052Z" fill="#783C3E"/>
<path d="M29.2372 130.184C29.0652 130.184 28.9102 130.065 28.8712 129.89C28.8262 129.682 24.3722 109.021 29.2022 96.7292C29.2782 96.5362 29.4972 96.4422 29.6882 96.5172C29.8812 96.5932 29.9762 96.8112 29.9002 97.0032C25.1522 109.085 29.5582 129.523 29.6032 129.728C29.6472 129.93 29.5192 130.13 29.3172 130.175C29.2912 130.181 29.2642 130.184 29.2372 130.184Z" fill="#783C3E"/>
<path d="M20.0331 121.891C9.17508 121.891 2.57908 109.154 2.07808 102.214L2.01208 101.298L2.70108 101.907C3.82008 102.896 5.16409 103.651 7.02509 104.695C9.00109 105.803 11.4611 107.183 14.9231 109.514C21.8981 114.209 20.7591 121.502 20.7461 121.576L20.6951 121.881L20.3861 121.889C20.2681 121.89 20.1501 121.891 20.0331 121.891ZM2.92108 103.053C3.86108 109.887 10.0811 121.141 20.0321 121.141C20.0351 121.141 20.0381 121.141 20.0421 121.141C20.1611 119.755 20.2691 114.015 14.5041 110.135C11.0661 107.822 8.62208 106.45 6.65808 105.348C5.12808 104.49 3.94008 103.823 2.92108 103.053Z" fill="#783C3E"/>
<path d="M25.8981 125.705C25.8311 125.705 25.7631 125.687 25.7021 125.649C25.5211 125.537 7.58106 114.363 2.11106 102.342C2.02506 102.154 2.10905 101.931 2.29705 101.845C2.48505 101.761 2.70805 101.842 2.79405 102.031C8.17105 113.846 25.9181 124.9 26.0961 125.01C26.2721 125.119 26.327 125.35 26.219 125.526C26.147 125.642 26.0241 125.705 25.8981 125.705Z" fill="#783C3E"/>
<path d="M43.3671 139.623L43.0871 139.492C33.0591 134.8 32.8111 120.217 35.4901 113.715L35.8401 112.865L36.1841 113.717C36.7431 115.102 37.6091 116.377 38.8081 118.142C40.0811 120.016 41.6651 122.348 43.7231 125.98C47.8681 133.295 43.5921 139.313 43.5481 139.372L43.3671 139.623ZM35.8701 114.842C33.6581 121.378 34.2001 134.231 43.1121 138.671C43.8381 137.485 46.4971 132.397 43.0721 126.351C41.0291 122.746 39.4541 120.427 38.1891 118.564C37.2031 117.113 36.4381 115.987 35.8701 114.842Z" fill="#783C3E"/>
<path d="M46.483 145.41C46.358 145.41 46.2351 145.347 46.1641 145.233C46.0521 145.052 34.989 127.043 35.463 113.844C35.47 113.638 35.633 113.49 35.852 113.483C36.059 113.491 36.221 113.665 36.213 113.872C35.747 126.841 46.691 144.66 46.802 144.838C46.911 145.014 46.8571 145.245 46.6811 145.355C46.6181 145.392 46.55 145.41 46.483 145.41Z" fill="#783C3E"/>
<path d="M28.3792 139.693C19.7482 139.693 11.8112 131.757 9.44415 126.323L9.07715 125.48L9.92915 125.826C11.3132 126.388 12.8322 126.653 14.9342 127.02C17.1662 127.409 19.9432 127.894 23.9842 128.942C32.1222 131.053 33.4701 138.311 33.4831 138.384L33.5361 138.689L33.2471 138.799C31.6211 139.417 29.9882 139.693 28.3792 139.693ZM10.5182 126.834C13.6752 132.97 23.2831 141.524 32.6741 138.21C32.3261 136.863 30.5222 131.413 23.7962 129.668C19.7852 128.627 17.0252 128.146 14.8062 127.759C13.0782 127.456 11.7352 127.222 10.5182 126.834Z" fill="#783C3E"/>
<path d="M39.5912 140.59C39.5652 140.59 39.5382 140.587 39.5112 140.581C39.3032 140.536 18.6702 135.954 9.51816 126.432C9.37416 126.283 9.37916 126.045 9.52916 125.902C9.67816 125.759 9.91616 125.764 10.0592 125.913C19.0552 135.272 39.4652 139.804 39.6702 139.849C39.8732 139.893 40.0012 140.093 39.9572 140.295C39.9192 140.471 39.7632 140.59 39.5912 140.59Z" fill="#783C3E"/>
<path d="M60.2101 149.408L59.9071 149.345C49.0651 147.103 45.4471 132.973 46.5481 126.028L46.6921 125.12L47.2241 125.869C48.0891 127.087 49.2261 128.127 50.8021 129.566C52.4741 131.094 54.5561 132.997 57.3991 136.053C63.1251 142.209 60.3591 149.053 60.3301 149.121L60.2101 149.408ZM47.1781 127.037C46.5401 133.908 50.0431 146.285 59.7411 148.541C60.1721 147.218 61.5811 141.653 56.8491 136.565C54.0271 133.531 51.9571 131.64 50.2951 130.12C49.0021 128.938 47.9961 128.019 47.1781 127.037Z" fill="#783C3E"/>
<path d="M64.4942 154.327C64.3982 154.327 64.3032 154.291 64.2302 154.218C64.0792 154.068 49.1472 139.11 46.5512 126.161C46.5102 125.958 46.6422 125.76 46.8452 125.72C47.0462 125.678 47.2462 125.811 47.2862 126.014C49.8382 138.741 64.6092 153.538 64.7582 153.686C64.9052 153.832 64.9062 154.069 64.7602 154.216C64.6872 154.29 64.5912 154.327 64.4942 154.327Z" fill="#783C3E"/>
<path d="M41.0681 154.46C34.0821 154.46 26.9131 150.389 23.7411 146.771L23.1351 146.08L24.0521 146.15C25.5421 146.267 27.0691 146.055 29.1811 145.764C31.4261 145.456 34.2201 145.073 38.3881 144.842C46.7781 144.374 50.2741 150.882 50.3081 150.947L50.4511 151.221L50.2091 151.414C47.4771 153.593 44.2911 154.46 41.0681 154.46ZM24.9191 146.931C29.7941 151.816 41.5491 157.039 49.4851 151.027C48.7441 149.85 45.3731 145.217 38.4291 145.591C34.2911 145.82 31.5141 146.201 29.2831 146.507C27.5471 146.745 26.1971 146.931 24.9191 146.931Z" fill="#783C3E"/>
<path d="M49.1041 151.496C41.8651 151.496 31.0431 150.749 23.8441 146.853C23.6621 146.755 23.5941 146.527 23.6931 146.345C23.7911 146.164 24.0181 146.096 24.2011 146.194C35.6181 152.373 56.4411 150.481 56.6481 150.461C56.8641 150.448 57.0381 150.593 57.0571 150.799C57.0771 151.006 56.9251 151.188 56.7191 151.208C56.6391 151.215 53.5461 151.496 49.1041 151.496Z" fill="#783C3E"/>
<path d="M85.7551 117.991C85.5481 117.991 85.3801 117.823 85.3801 117.616V40.8662C85.3801 40.6592 85.5481 40.4912 85.7551 40.4912C85.9621 40.4912 86.1301 40.6592 86.1301 40.8662V117.616C86.1301 117.823 85.9621 117.991 85.7551 117.991Z" fill="#783C3E"/>
<path d="M100.134 99.813H99.445L104.056 62.713H105.805L116.935 97.004L128.012 62.713H129.761L134.372 99.813H129.973L126.316 70.133L116.723 99.813H113.384L103.685 70.504L100.134 99.813Z" fill="#783C3E"/>
<path d="M72.673 62.713C73.3443 63.3843 73.68 64.25 73.68 65.31C73.68 66.1933 73.4857 67.0943 73.097 68.013L59.529 99.813L58.946 100.078L45.59 62.713H50.095L61.172 94.089L72.461 68.013C72.8497 67.1297 73.044 66.211 73.044 65.257C73.044 64.303 72.779 63.561 72.249 63.031L72.673 62.713Z" fill="#783C3E"/>
<path d="M24.1955 30.8045C24.498 30.7692 24.7826 30.857 25.0493 31.0679C25.2715 31.2436 25.4595 31.4718 25.6133 31.7524L30.9138 41.4933L30.8644 41.6927L18.8066 37.618L19.703 36.4846L29.8006 39.941L25.4867 31.9124C25.3418 31.6388 25.1494 31.4072 24.9094 31.2173C24.6694 31.0275 24.43 30.9465 24.1912 30.9744L24.1955 30.8045ZM38.7182 33.1087C38.168 33.6483 37.6886 33.9122 37.28 33.9002C36.9193 33.9047 36.6755 33.8422 36.5485 33.7128L36.2985 33.4579C36.6084 34.5669 36.3263 35.5499 35.4525 36.407C34.433 37.4069 33.4021 37.5131 32.3599 36.7256C32.2485 36.6444 32.1452 36.5552 32.0499 36.4581C31.9468 36.3529 31.8519 36.2238 31.7652 36.0707C31.6785 35.9176 31.6406 35.6928 31.6515 35.3964C31.6733 34.8035 32.1743 33.9629 33.1546 32.8744C33.3897 32.5962 33.6165 32.35 33.835 32.1357C34.0534 31.9214 34.2596 31.7351 34.4535 31.5767L32.4775 29.562C32.4533 29.5698 32.4176 29.5334 32.3703 29.4528C32.3151 29.3641 32.2116 29.2909 32.0599 29.2334C31.9083 29.1598 31.7446 29.1061 31.5686 29.0723C31.3926 29.0386 31.1758 29.0765 30.9183 29.1862C30.6529 29.2878 30.3705 29.4855 30.0711 29.7791C29.7717 30.0727 29.4753 30.4746 29.1818 30.9846C28.8885 31.4787 28.7004 31.8695 28.6175 32.1572L28.4856 32.1199C28.8804 31.0819 29.4499 30.1978 30.1943 29.4677C31.0277 28.6503 31.7247 28.2604 32.2854 28.2979C32.7259 28.3262 33.0731 28.4698 33.327 28.7287L37.3148 32.7946C37.5449 33.0292 37.768 33.1676 37.9839 33.2098C38.2001 33.2359 38.3607 33.2054 38.4657 33.1183L38.623 33.0116L38.9992 32.6426L39.0945 32.7397L38.7182 33.1087ZM35.5515 36.1194C35.9803 35.6988 36.2218 35.1762 36.2759 34.5516C36.3302 33.911 36.2346 33.4413 35.989 33.1424L34.5487 31.6738C34.3144 31.8719 34.0839 32.082 33.8574 32.3042C33.6389 32.5185 33.4323 32.7449 33.2377 32.9834C32.6942 33.6594 32.4286 34.1898 32.4409 34.5746C32.4532 34.9594 32.6339 35.3298 32.9831 35.6858C33.0466 35.7505 33.122 35.8194 33.2095 35.8923C34.1235 36.6786 34.9042 36.7543 35.5515 36.1194ZM41.3428 30.8175C40.5788 31.4586 39.9294 31.6633 39.3946 31.4315C39.2784 31.3811 39.1911 31.3212 39.1328 31.2517L31.6472 22.3315L32.5587 21.5665L39.9679 30.3956C40.1791 30.6474 40.3908 30.8027 40.6029 30.8614C40.8163 30.9042 40.9788 30.8862 41.0903 30.8075L41.2554 30.7133L41.659 30.3746L41.7465 30.4788L41.3428 30.8175ZM40.2756 26.4735C41.0945 27.6156 41.8935 28.3117 42.6726 28.562C43.4609 28.8056 44.182 28.693 44.8359 28.2241C45.757 27.5637 46.4776 26.8378 46.9979 26.0464L47.1087 26.1133C46.5766 26.9272 45.8454 27.6676 44.9152 28.3346C43.9941 28.995 43.0454 29.2569 42.0689 29.1204C41.0924 28.9838 40.1914 28.3399 39.3659 27.1885C38.5404 26.0372 38.2037 24.9259 38.3559 23.8545C38.5081 22.7831 39.054 21.9106 39.9934 21.237C40.7487 20.6955 41.546 20.4655 42.3854 20.547C43.2248 20.6285 43.9615 21.1113 44.5954 21.9955C44.6285 22.0416 44.6615 22.0876 44.6945 22.1337L39.7623 25.6701C39.913 25.9386 40.0841 26.2064 40.2756 26.4735ZM43.6758 22.6967C43.0326 21.8191 42.3933 21.2874 41.758 21.1014C41.1226 20.9155 40.5424 21.0108 40.0174 21.3872C39.4924 21.7636 39.1878 22.3307 39.1035 23.0884C39.0285 23.8395 39.2263 24.6599 39.6969 25.5497L43.6758 22.6967ZM53.8614 22.8509C53.456 23.0779 53.0947 23.1633 52.7775 23.1072C52.4701 23.0454 52.2617 22.9283 52.1521 22.7559L51.9961 22.512L49.3882 17.8545C48.9507 17.0733 48.4684 16.6874 47.9411 16.6969C47.6781 16.7143 47.3933 16.8088 47.0868 16.9804C46.4539 17.3348 46.0265 17.9053 45.8046 18.692C45.5771 19.4689 45.5741 20.0551 45.7956 20.4506L48.744 25.7163L47.7057 26.2977L43.553 18.8812L44.5913 18.2998L45.5381 19.9908C45.4681 19.4714 45.5581 18.9015 45.8081 18.2809C46.0526 17.6504 46.4468 17.1829 46.9907 16.8784C47.5345 16.5738 48.005 16.3818 48.4022 16.3023C48.8036 16.2074 49.1361 16.2096 49.3995 16.3089C49.8184 16.477 50.1635 16.8034 50.4348 17.2879L53.0344 21.9306C53.195 22.2174 53.374 22.4095 53.5713 22.5068C53.773 22.5887 53.936 22.6013 54.0602 22.5448L54.24 22.4831L54.6998 22.2256L54.7662 22.3443L53.8614 22.8509ZM51.5942 14.618L51.5401 14.4932L51.8677 14.3513L51.192 12.7913L52.2839 12.3183L52.9597 13.8782L55.3463 12.8443L55.4004 12.9691L53.0137 14.003L55.4735 19.6812C55.7663 20.3571 56.0508 20.8144 56.3271 21.0529C56.6137 21.2869 56.9962 21.3003 57.4746 21.093C57.9633 20.8813 58.4145 20.5685 58.8281 20.1547L58.929 20.2592C58.4946 20.6821 57.9394 21.0399 57.2634 21.3327C56.5979 21.621 56.0401 21.7021 55.5902 21.5759C55.1358 21.4392 54.7306 20.9601 54.3748 20.1386L51.9218 14.4761L51.5942 14.618ZM61.0594 19.7727C60.6231 19.9327 60.2528 19.9599 59.9485 19.8542C59.6548 19.7446 59.4675 19.596 59.3866 19.4084L59.2712 19.1429L56.7599 12.2959L57.8771 11.8862L60.3884 18.7332C60.5016 19.0417 60.6479 19.2597 60.8274 19.387C61.0136 19.4998 61.1672 19.54 61.2881 19.5077L61.4913 19.4694L61.9861 19.2879L62.0329 19.4156L61.0594 19.7727ZM56.2001 10.4732C56.0255 10.3924 55.9032 10.2562 55.8329 10.0647C55.7627 9.87314 55.768 9.69012 55.8488 9.51561C55.9258 9.33046 56.06 9.20276 56.2516 9.13252C56.4431 9.06227 56.628 9.0729 56.8065 9.16439C56.9916 9.24134 57.1193 9.37558 57.1896 9.5671C57.2598 9.75863 57.2492 9.9436 57.1577 10.122C57.0768 10.2965 56.9406 10.4189 56.7491 10.4891C56.5576 10.5594 56.3746 10.5541 56.2001 10.4732ZM69.3428 17.4084C68.8945 17.5309 68.5233 17.5267 68.229 17.3957C67.9456 17.2617 67.7715 17.0978 67.7068 16.904L67.6142 16.6297L66.2063 11.4807C65.9702 10.6171 65.5951 10.1263 65.0812 10.0083C64.8217 9.96179 64.5225 9.98485 64.1836 10.0775C63.484 10.2688 62.9316 10.7194 62.5265 11.4294C62.1184 12.1285 61.9742 12.6966 62.0937 13.1339L63.6854 18.9552L62.5376 19.2691L60.2957 11.0701L61.4436 10.7562L61.9547 12.6256C62.0121 12.1047 62.2369 11.5732 62.6291 11.0313C63.0184 10.4783 63.5137 10.1197 64.115 9.95529C64.7162 9.79089 65.2191 9.718 65.6237 9.73663C66.0362 9.74133 66.3583 9.82362 66.59 9.98351C66.956 10.2477 67.2122 10.6476 67.3587 11.1833L68.7621 16.3159C68.8487 16.6329 68.9761 16.8624 69.1442 17.0045C69.3202 17.1326 69.4753 17.1842 69.6095 17.1592L69.7988 17.1427L70.3072 17.0037L70.343 17.1349L69.3428 17.4084ZM77.4045 16.149C76.6416 16.2582 76.0991 16.1871 75.7768 15.9356C75.4835 15.7257 75.3239 15.531 75.2982 15.3515L75.2476 14.9981C74.8409 16.0753 74.0317 16.7007 72.82 16.8742C71.4064 17.0766 70.5127 16.552 70.1389 15.3003C70.0971 15.1689 70.0666 15.0359 70.0474 14.9013C70.0265 14.7554 70.0264 14.5951 70.0472 14.4204C70.068 14.2457 70.1705 14.0421 70.3547 13.8097C70.7232 13.3448 71.6246 12.9638 73.059 12.6668C73.4132 12.5817 73.7418 12.5175 74.0447 12.4741C74.3476 12.4308 74.6241 12.4026 74.8741 12.3897L74.4741 9.59621C74.45 9.58821 74.4428 9.53772 74.4524 9.44476C74.4604 9.34057 74.4202 9.22038 74.332 9.08417C74.2535 8.93514 74.1532 8.79493 74.0314 8.66354C73.9095 8.53216 73.7124 8.43445 73.4399 8.37043C73.1658 8.29519 72.8212 8.28729 72.4061 8.34674C71.991 8.40618 71.5142 8.55459 70.9757 8.79198C70.4469 9.01655 70.0639 9.22023 69.8268 9.40302L69.7426 9.29486C70.6752 8.69191 71.6576 8.31653 72.6897 8.16873C73.8452 8.00326 74.6378 8.10157 75.0675 8.46365C75.4058 8.74723 75.6006 9.06852 75.652 9.42753L76.4593 15.065C76.5059 15.3904 76.6038 15.634 76.7529 15.7958C76.9116 15.9448 77.0591 16.0153 77.1953 16.0072L77.3852 16.0144L77.9069 15.9397L77.9262 16.0743L77.4045 16.149ZM73.07 16.701C73.6646 16.6158 74.1686 16.3376 74.5819 15.8662C75.0049 15.3821 75.2059 14.9468 75.1849 14.5606L74.8934 12.5243C74.5872 12.5453 74.2771 12.5782 73.963 12.6232C73.6601 12.6666 73.3596 12.7268 73.0615 12.8038C72.2233 13.0269 71.6953 13.2971 71.4774 13.6146C71.2595 13.932 71.1859 14.3375 71.2566 14.8311C71.2695 14.9209 71.2896 15.0211 71.3168 15.1316C71.5881 16.3064 72.1725 16.8295 73.07 16.701ZM93.2082 10.0231L93.2227 9.85371L97.4065 10.2109L97.392 10.3803L96.4604 10.3008C95.7089 11.9087 94.571 13.3129 93.0466 14.5136C92.3028 15.0985 91.4506 15.5546 90.4899 15.8821C89.5302 16.1983 88.5592 16.3144 87.5767 16.2305C86.6395 16.1505 85.7967 15.8965 85.0484 15.4687C84.614 15.2268 84.2353 14.9329 83.9123 14.5868C83.6015 14.2304 83.3563 13.7716 83.1767 13.2103C82.9981 12.6377 82.9392 11.9957 82.9999 11.2842C83.1185 9.89529 83.6418 8.7627 84.5697 7.88646C85.5098 6.99989 86.5219 6.60289 87.606 6.69545C89.5709 6.86321 90.5124 7.82513 90.4307 9.58121L93.432 7.60235L93.5419 7.71411L84.5764 13.6028C84.8009 14.3044 85.1559 14.875 85.6416 15.3146C86.1396 15.7438 86.7838 15.9922 87.5743 16.0597C88.376 16.1281 89.189 15.9985 90.0132 15.6708C90.8496 15.3327 91.589 14.8669 92.2311 14.2734C93.5286 13.0647 94.4867 11.7019 95.1053 10.1851L93.2082 10.0231ZM89.0015 10.5341C89.1001 9.2458 89.0479 8.32568 88.8448 7.77374C88.6529 7.22275 88.2691 6.92268 87.6932 6.87351C87.1286 6.8253 86.6356 6.93677 86.2144 7.20792C85.8054 7.46873 85.4728 7.83277 85.2168 8.30001C84.7416 9.20353 84.4567 10.2086 84.3622 11.3152L84.3325 12.0634C84.3456 12.5764 84.4077 13.0481 84.5188 13.4784L89.0015 10.5341ZM102.114 18.3042L101.906 18.2284L107.373 7.55557L107.9 7.74779L107.485 19.3042L114.592 10.1885L115.119 10.3807L112.431 22.0671L111.105 21.5836L113.265 12.238L107.113 20.1274L106.106 19.7604L106.405 9.86252L102.114 18.3042ZM119.481 25.7886C118.805 25.4197 118.413 25.0381 118.305 24.6437C118.195 24.3 118.184 24.0486 118.271 23.8894L118.442 23.5759C117.471 24.1957 116.449 24.2125 115.374 23.6266C114.121 22.943 113.718 21.9879 114.168 20.7613C114.213 20.631 114.268 20.5062 114.333 20.3868C114.404 20.2575 114.5 20.129 114.621 20.0015C114.742 19.8739 114.946 19.7721 115.233 19.6961C115.806 19.5441 116.756 19.7782 118.083 20.3985C118.418 20.5422 118.72 20.6874 118.988 20.8339C119.257 20.9804 119.495 21.1232 119.703 21.2625L121.054 18.7849C121.04 18.7641 121.064 18.7193 121.127 18.6505C121.196 18.5718 121.236 18.4515 121.247 18.2896C121.273 18.1232 121.277 17.9509 121.258 17.7727C121.239 17.5945 121.139 17.3983 120.959 17.1839C120.784 16.9596 120.513 16.7471 120.145 16.5464C119.777 16.3456 119.306 16.1793 118.732 16.0473C118.174 15.9108 117.746 15.8448 117.446 15.8494L117.444 15.7124C118.552 15.7873 119.563 16.0743 120.479 16.5735C121.504 17.1323 122.08 17.6853 122.207 18.2325C122.309 18.6621 122.273 19.0362 122.099 19.3546L119.373 24.3546C119.215 24.6431 119.148 24.8968 119.171 25.1157C119.209 25.3301 119.285 25.4748 119.399 25.5499L119.547 25.6692L120.009 25.9215L119.944 26.0409L119.481 25.7886ZM115.678 23.6374C116.206 23.9249 116.776 24.0035 117.389 23.8732C118.018 23.7383 118.439 23.5099 118.653 23.1879L119.638 21.3819C119.38 21.2155 119.112 21.0564 118.834 20.9044C118.565 20.7579 118.288 20.6264 118.003 20.5097C117.198 20.187 116.613 20.0875 116.249 20.2115C115.884 20.3355 115.583 20.6164 115.344 21.0542C115.301 21.1338 115.257 21.2261 115.212 21.331C114.727 22.4345 114.882 23.2033 115.678 23.6374ZM125.879 30.2647C125.5 29.9958 125.268 29.7061 125.182 29.3955C125.106 29.0914 125.123 28.8529 125.231 28.6799L125.385 28.4344L128.473 24.0803C128.991 23.35 129.132 22.7487 128.898 22.2765C128.769 22.0464 128.561 21.8297 128.275 21.6265C127.683 21.2069 126.984 21.0656 126.179 21.2027C125.379 21.3305 124.849 21.5793 124.586 21.9491L121.095 26.8717L120.124 26.1833L125.042 19.25L126.012 19.9385L124.891 21.5192C125.33 21.2332 125.884 21.0699 126.552 21.0295C127.226 20.9798 127.817 21.1353 128.326 21.4959C128.834 21.8565 129.21 22.1991 129.452 22.5237C129.71 22.8456 129.85 23.1468 129.874 23.4274C129.902 23.8779 129.755 24.3296 129.434 24.7826L126.355 29.1228C126.165 29.3909 126.069 29.6349 126.065 29.855C126.078 30.0723 126.136 30.2249 126.241 30.3129L126.374 30.4488L126.804 30.7536L126.725 30.8646L125.879 30.2647ZM129.006 30.3248C128.404 30.9879 128.196 31.5717 128.381 32.0762C128.473 32.3124 128.649 32.5486 128.909 32.7847C129.438 33.2645 130.09 33.4895 130.867 33.4598C131.652 33.4377 132.218 33.2699 132.564 32.9562L136.665 28.4365L137.546 29.2361L132.645 34.6371C132.425 34.8805 132.299 35.1113 132.27 35.3293C132.256 35.5466 132.296 35.7051 132.389 35.8049L132.505 35.9558L132.895 36.3099L132.804 36.4106L132.036 35.7138C131.692 35.4015 131.496 35.0861 131.448 34.7675C131.409 34.4565 131.454 34.2216 131.582 34.0629L131.764 33.8375L132.255 33.2961C131.777 33.5199 131.2 33.6162 130.524 33.5848C129.856 33.545 129.292 33.3157 128.83 32.8968C128.377 32.4856 128.041 32.1047 127.824 31.7542C127.622 31.403 127.531 31.0905 127.55 30.8168C127.567 30.3586 127.763 29.9239 128.136 29.5126L132.523 24.6781L133.404 25.4778L129.006 30.3248ZM136.774 34.686C135.714 35.6087 135.096 36.4696 134.92 37.2688C134.751 38.0765 134.931 38.7838 135.46 39.3908C136.204 40.2456 136.994 40.8948 137.831 41.3384L137.775 41.455C136.914 41.0018 136.109 40.3435 135.357 39.48C134.613 38.6252 134.263 37.7052 134.307 36.7202C134.351 35.7352 134.908 34.7777 135.976 33.8476C137.045 32.9175 138.12 32.4778 139.201 32.5286C140.281 32.5794 141.201 33.0408 141.96 33.9128C142.571 34.6138 142.875 35.3859 142.872 36.2292C142.87 37.0726 142.459 37.8514 141.638 38.5657C141.595 38.6029 141.553 38.6401 141.51 38.6773L137.525 34.0995C137.272 34.2747 137.022 34.4703 136.774 34.686ZM140.853 37.716C141.667 36.9932 142.136 36.3067 142.261 35.6567C142.387 35.0067 142.237 34.438 141.813 33.9508C141.389 33.4635 140.796 33.2135 140.034 33.2009C139.279 33.1968 138.481 33.4708 137.639 34.023L140.853 37.716ZM139.381 44.3244C138.79 43.5208 138.628 42.8596 138.893 42.3408C138.951 42.228 139.016 42.1448 139.09 42.0911L148.472 35.194L149.177 36.1529L139.89 42.9794C139.625 43.1741 139.457 43.3753 139.385 43.5832C139.328 43.7934 139.336 43.9567 139.407 44.073L139.49 44.2438L139.803 44.6684L139.693 44.749L139.381 44.3244Z" fill="#783C3E"/>
</svg>
